#!OML:ASF E:\CV Data\Top Level 1\Subject 1\Session 1\player.ASF
:FULLY-SPECIFIED
:DEGREES
771
root 11.4154 16.601 -1.62723 185.588 -73.8101 -177.721
lowerback 16.5585 1.6748 2.96095
upperback 5.24016 2.38199 1.23315
thorax -3.6102 1.02501 -0.822932
lowerneck -12.731 17.8758 -1.00776
upperneck 12.9224 24.349 -0.227009
head 5.85827 11.7748 2.13816
rclavicle -2.14687e-014 -6.36111e-015
rhumerus -2.31233 8.11566 -19.507
rradius 126.103
rwrist -65.4235
rhand -43.7741 -6.80535
rfingers 7.12502
rthumb -16.6037 -36.1151
lclavicle -2.14687e-014 -6.36111e-015
lhumerus 88.8379 -59.1101 34.7745
lradius 70.7451
lwrist 19.2777
lhand -31.6449 19.0559
lfingers 7.12502
lthumb -4.90583 48.9791
rfemur -34.1887 5.13364 9.31829
rtibia 48.9853
rfoot -23.5709 0.850533
rtoes -8.10186
lfemur -29.7065 11.8922 -8.69644
ltibia 42.3668
lfoot -16.1551 -3.3184
ltoes -11.9569
772
root 11.4072 16.595 -1.60439 185.734 -73.8363 -177.936
lowerback 16.5308 1.68481 2.94471
upperback 5.25759 2.39105 1.25247
thorax -3.57833 1.02969 -0.794032
lowerneck -12.7841 17.8883 -1.10324
upperneck 12.9413 24.3812 -0.198542
head 5.85759 11.7876 2.16383
rclavicle 3.65764e-014 7.15625e-015
rhumerus -2.32082 8.17046 -19.4948
rradius 126.134
rwrist -65.5387
rhand -43.8241 -6.85507
rfingers 7.12502
rthumb -16.6519 -36.1608
lclavicle 3.65764e-014 7.15625e-015
lhumerus 88.7809 -59.1566 34.8198
lradius 70.7785
lwrist 19.3454
lhand -31.7095 19.0805
lfingers 7.12502
lthumb -4.96827 49.0023
rfemur -34.1265 5.15911 9.15965
rtibia 49.0466
rfoot -23.639 0.788199
rtoes -8.06925
lfemur -29.7467 11.989 -8.85665
ltibia 42.5354
lfoot -16.2783 -3.44079
ltoes -11.9327
773
root 11.3993 16.5893 -1.5832 185.849 -73.8651 -178.116
lowerback 16.5012 1.69088 2.94004
upperback 5.27528 2.39657 1.26859
thorax -3.54461 1.03267 -0.774285
lowerneck -12.8439 17.9011 -1.14955
upperneck 12.9714 24.4115 -0.205588
head 5.87202 11.7976 2.17679
rclavicle 3.81667e-014 -9.54166e-015
rhumerus -2.31202 8.24096 -19.4643
rradius 126.161
rwrist -65.6255
rhand -43.8509 -6.91947
rfingers 7.12502
rthumb -16.6777 -36.223
lclavicle 3.81667e-014 -9.54166e-015
lhumerus 88.7066 -59.217 34.8764
lradius 70.8181
lwrist 19.4382
lhand -31.777 19.1168
lfingers 7.12502
lthumb -5.03343 49.037
rfemur -34.0668 5.17925 9.02036
rtibia 49.107
rfoot -23.706 0.724011
rtoes -8.05057
lfemur -29.7851 12.0511 -8.99667
ltibia 42.6983
lfoot -16.3947 -3.52387
ltoes -11.9386
774
root 11.3918 16.5837 -1.56366 185.941 -73.8903 -178.271
lowerback 16.4759 1.69532 2.95146
upperback 5.2904 2.40239 1.2728
thorax -3.5146 1.03591 -0.776346
lowerneck -12.9037 17.9138 -1.13383
upperneck 13.0136 24.4374 -0.252137
head 5.90292 11.8038 2.17402
rclavicle 3.18055e-014 1.98785e-014
rhumerus -2.2988 8.32816 -19.4265
rradius 126.187
rwrist -65.6923
rhand -43.8648 -6.99733
rfingers 7.12502
rthumb -16.6911 -36.2997
lclavicle 3.18055e-014 1.98785e-014
lhumerus 88.6221 -59.301 34.9346
lradius 70.8559
lwrist 19.5405
lhand -31.8381 19.1616
lfingers 7.12502
lthumb -5.0924 49.0804
rfemur -34.0096 5.19564 8.89951
rtibia 49.167
rfoot -23.7706 0.651046
rtoes -8.08681
lfemur -29.8167 12.0794 -9.11832
ltibia 42.8549
lfoot -16.5033 -3.56387
ltoes -11.9782
775
root 11.3847 16.5783 -1.5462 186.021 -73.9167 -178.411
lowerback 16.4557 1.69547 2.97467
upperback 5.30167 2.40437 1.26133
thorax -3.49027 1.03741 -0.801033
lowerneck -12.9528 17.9249 -1.07863
upperneck 13.0485 24.4571 -0.321781
head 5.93755 11.807 2.15942
rclavicle 9.93923e-015 9.54166e-015
rhumerus -2.28023 8.43512 -19.3947
rradius 126.206
rwrist -65.7331
rhand -43.8588 -7.08555
rfingers 7.12502
rthumb -16.6853 -36.3884
lclavicle 9.93923e-015 9.54166e-015
lhumerus 88.5258 -59.4071 34.9899
lradius 70.8884
lwrist 19.6401
lhand -31.8833 19.2083
lfingers 7.12502
lthumb -5.13607 49.1261
rfemur -33.9547 5.2061 8.79375
rtibia 49.2269
rfoot -23.8329 0.57363
rtoes -8.15965
lfemur -29.8433 12.0773 -9.22472
ltibia 43.004
lfoot -16.603 -3.57343
ltoes -12.0264
776
root 11.378 16.5731 -1.53085 186.075 -73.94 -178.524
lowerback 16.4348 1.69729 2.99484
upperback 5.31366 2.40793 1.24909
thorax -3.46486 1.03969 -0.825064
lowerneck -12.9932 17.9341 -1.02168
upperneck 13.0759 24.4741 -0.395838
head 5.96923 11.809 2.14192
rclavicle -2.82274e-014 -7.95139e-016
rhumerus -2.24542 8.55603 -19.3477
rradius 126.219
rwrist -65.756
rhand -43.831 -7.18093
rfingers 7.12502
rthumb -16.6585 -36.4861
lclavicle -2.82274e-014 -7.95139e-016
lhumerus 88.4123 -59.5284 35.0698
lradius 70.9074
lwrist 19.7305
lhand -31.9127 19.2472
lfingers 7.12502
lthumb -5.16446 49.1643
rfemur -33.9024 5.21582 8.70745
rtibia 49.2872
rfoot -23.8912 0.493502
rtoes -8.26051
lfemur -29.8618 12.0579 -9.31218
ltibia 43.1441
lfoot -16.695 -3.55855
ltoes -12.0936
